<?xml version="1.0" encoding="UTF-8"?>
<svg id="Layer_1" data-name="Layer 1" xmlns="http://www.w3.org/2000/svg" viewBox="0 0 1080 1080">
  <defs>
    <style>
      .cls-1, .cls-2, .cls-3 {
        fill: #fff;
      }

      .cls-1, .cls-4, .cls-5 {
        opacity: .2;
      }

      .cls-6 {
        fill: #fafafa;
      }

      .cls-7, .cls-5 {
        fill: #02a669;
      }

      .cls-8 {
        fill: #2b454e;
      }

      .cls-9 {
        fill: #ff9090;
      }

      .cls-10 {
        opacity: .3;
      }

      .cls-2 {
        opacity: .95;
      }

      .cls-11 {
        fill: #375a64;
      }

      .cls-12 {
        fill: #1a2e35;
      }

      .cls-13 {
        opacity: .15;
      }

      .cls-14 {
        fill: #ffaaa8;
      }
    </style>
  </defs>
  <g id="Background">
    <path class="cls-8" d="M1063.34,525c-11.38-117.96-70.62-235.65-121.73-300.65C724.99-51.13,290.22-50.59,83.13,295.4,24.72,393-11.93,609.96,31.45,770.44c55.51,205.38,274.27,285.37,517.54,283.48,227.29-1.77,406.01-100.59,472.93-237.11,41.87-85.43,52.8-173.85,41.43-291.81Z"/>
    <path class="cls-12" d="M83.13,295.4C24.72,393-11.93,609.96,31.45,770.44c9.74,36.04,24.52,68.2,43.57,96.75,0,0,0,0,0,0l241.53-139.43,205.83-118.82h0s483.55-279.14,483.55-279.14c0,0,0,0,0,0-20.13-41.81-42.93-78.25-64.32-105.45C724.99-51.13,290.22-50.59,83.13,295.4Z"/>
    <g class="cls-4">
      <path d="M83.53,461.13c4.68-2.7,8.47-9.27,8.47-14.67v-17.14c0-5.4-3.79-7.59-8.47-4.89l-55.95,32.3c-2.58,13.26-4.87,26.84-6.83,40.65l62.78-36.25Z"/>
      <path d="M63.56,334.43l19.96-11.52c4.68-2.7,8.47-9.27,8.47-14.67v-17.14c0-2.87-1.09-4.8-2.8-5.6-2.04,3.27-4.07,6.57-6.07,9.91-6.86,11.45-13.41,24.57-19.57,39.03Z"/>
      <path d="M168.64,183.72l16.91-9.76c4.67-2.7,8.46-9.25,8.47-14.65-8.63,7.78-17.09,15.92-25.37,24.41Z"/>
      <path d="M92,626.74v-17.14c0-5.4-3.79-7.59-8.47-4.89l-70.38,40.63c.52,11.84,1.33,23.62,2.45,35.29l67.93-39.22c4.68-2.7,8.47-9.27,8.47-14.67Z"/>
      <path d="M296.04,370.91v-17.14c0-5.4-3.79-7.59-8.47-4.89l-78.41,45.27c-4.68,2.7-8.47,9.27-8.47,14.67v17.14c0,5.4,3.79,7.59,8.47,4.89l78.42-45.27c4.68-2.7,8.47-9.27,8.47-14.67Z"/>
      <path d="M33.46,777.34c1.65,5.66,3.42,11.24,5.32,16.7v-10.71c0-4.11-2.21-6.35-5.32-5.99Z"/>
      <path d="M34,576.63c4.68-2.7,8.47-9.27,8.47-14.67v-17.14c0-5.4-3.79-7.59-8.47-4.89l-19.14,11.05c-.97,12.56-1.65,25.21-2.04,37.88l21.18-12.23Z"/>
      <path d="M311.18,281.91l78.41-45.27c4.68-2.7,8.47-9.27,8.47-14.67v-17.14c0-5.4-3.79-7.59-8.47-4.89l-78.41,45.27c-4.68,2.7-8.47,9.27-8.47,14.67v17.14c0,5.4,3.79,7.59,8.47,4.89Z"/>
      <path d="M363.67,566.97l78.41-45.27c4.68-2.7,8.47-9.27,8.47-14.67v-17.14c0-5.4-3.79-7.59-8.47-4.89l-78.41,45.27c-4.68,2.7-8.47,9.27-8.47,14.67v17.14c0,5.4,3.79,7.59,8.47,4.89Z"/>
      <path d="M159.63,233.87l78.41-45.27c4.68-2.7,8.47-9.27,8.47-14.67v-17.14c0-5.4-3.79-7.59-8.47-4.89l-78.41,45.27c-4.68,2.7-8.47,9.27-8.47,14.67v17.14c0,5.4,3.79,7.59,8.47,4.89Z"/>
      <path d="M302.7,367.16c0,5.4,3.79,7.59,8.47,4.89l78.41-45.27c4.68-2.7,8.47-9.27,8.47-14.67v-17.14c0-5.4-3.79-7.59-8.47-4.89l-78.41,45.27c-4.68,2.7-8.47,9.27-8.47,14.67v17.14Z"/>
      <path d="M185.55,587.97l-78.41,45.27c-4.68,2.7-8.47,9.27-8.47,14.67v17.14c0,5.4,3.79,7.59,8.47,4.89l78.42-45.27c4.68-2.7,8.47-9.27,8.47-14.67v-17.14c0-5.4-3.79-7.59-8.47-4.89Z"/>
      <path d="M499.54,27.43c-23.43,1.73-46.8,5.1-69.97,10.12l-16.38,9.46c-4.68,2.7-8.47,9.27-8.47,14.67v17.14c0,5.4,3.79,7.59,8.47,4.89l78.42-45.27c3.66-2.11,6.74-6.58,7.93-11.01Z"/>
      <path d="M246.51,534.5v-17.14c0-5.4-3.79-7.59-8.47-4.89l-78.41,45.27c-4.68,2.7-8.47,9.27-8.47,14.67v17.14c0,5.4,3.79,7.59,8.47,4.89l78.41-45.27c4.68-2.7,8.47-9.27,8.47-14.67Z"/>
      <path d="M348.53,655.98v-17.14c0-5.4-3.79-7.59-8.47-4.89l-78.41,45.27c-4.68,2.7-8.47,9.27-8.47,14.67v17.14c0,5.4,3.79,7.59,8.47,4.89l78.42-45.27c4.68-2.7,8.47-9.27,8.47-14.67Z"/>
      <path d="M617.24,466.07l78.41-45.27c4.68-2.7,8.47-9.27,8.47-14.67v-17.14c0-5.4-3.79-7.59-8.47-4.89l-78.41,45.27c-4.68,2.7-8.47,9.27-8.47,14.67v17.14c0,5.4,3.79,7.59,8.47,4.89Z"/>
      <path d="M669.73,480.7l78.42-45.27c4.68-2.7,8.47-9.27,8.47-14.67v-17.14c0-5.4-3.79-7.59-8.47-4.89l-78.42,45.27c-4.68,2.7-8.47,9.27-8.47,14.67v17.14c0,5.4,3.79,7.59,8.47,4.89Z"/>
      <path d="M608.77,224.11v17.14c0,5.4,3.79,7.59,8.47,4.89l78.41-45.27c4.68-2.7,8.47-9.27,8.47-14.67v-17.14c0-5.4-3.79-7.59-8.47-4.89l-78.41,45.27c-4.68,2.7-8.47,9.27-8.47,14.67Z"/>
      <path d="M661.96,61c-4.68,2.7-8.47,9.27-8.47,14.67v17.14c0,5.4,3.79,7.59,8.47,4.89l62.27-35.95c-13.06-5.15-26.3-9.75-39.68-13.79l-22.59,13.04Z"/>
      <path d="M646.13,147.46l-78.41,45.27c-4.68,2.7-8.47,9.27-8.47,14.67v17.14c0,5.4,3.79,7.59,8.47,4.89l78.41-45.27c4.68-2.7,8.47-9.27,8.47-14.67v-17.14c0-5.4-3.79-7.59-8.47-4.89Z"/>
      <path d="M756.62,223.33c0-5.4-3.79-7.59-8.47-4.89l-78.42,45.27c-4.68,2.7-8.47,9.27-8.47,14.67v17.14c0,5.4,3.79,7.59,8.47,4.89l78.42-45.27c4.68-2.7,8.47-9.27,8.47-14.67v-17.14Z"/>
      <path d="M952.19,281.12l-78.41,45.27c-4.68,2.7-8.47,9.27-8.47,14.67v17.14c0,5.4,3.79,7.59,8.47,4.89l78.42-45.27c4.68-2.7,8.47-9.27,8.47-14.67v-17.14c0-5.4-3.79-7.59-8.47-4.89Z"/>
      <path d="M951.06,236.87l-27.76,16.08c-4.68,2.7-8.47,9.27-8.47,14.67v17.14c0,5.4,3.79,7.59,8.47,4.89l45.68-26.44c-5.98-9.38-11.98-18.19-17.92-26.35Z"/>
      <path d="M552.58,358.08v-17.14c0-5.4-3.79-7.59-8.47-4.89l-78.41,45.27c-4.68,2.7-8.47,9.27-8.47,14.67v17.14c0,5.4,3.79,7.59,8.47,4.89l78.41-45.27c4.68-2.7,8.47-9.27,8.47-14.67Z"/>
      <path d="M850.17,159.64l-78.41,45.27c-4.68,2.7-8.47,9.27-8.47,14.67v17.14c0,5.4,3.79,7.59,8.47,4.89l78.41-45.27c4.68-2.7,8.47-9.27,8.47-14.67v-17.14c0-5.4-3.79-7.59-8.47-4.89Z"/>
      <path d="M491.61,501.7l-78.41,45.27c-4.68,2.7-8.47,9.27-8.47,14.67v17.14c0,5.4,3.79,7.59,8.47,4.89l78.42-45.27c4.68-2.7,8.47-9.27,8.47-14.67v-17.14c0-5.4-3.79-7.59-8.47-4.89Z"/>
      <path d="M82.81,829.78c4.68-2.7,8.47-9.27,8.47-14.67v-17.14c0-5.4-3.79-7.59-8.47-4.89l-36.31,20.96c4.19,9.91,8.79,19.49,13.82,28.73l22.49-12.99Z"/>
      <path d="M812.81,326.43v17.14c0,5.4,3.79,7.59,8.47,4.89l78.42-45.27c4.68-2.7,8.47-9.27,8.47-14.67v-17.14c0-5.4-3.79-7.59-8.47-4.89l-78.41,45.27c-4.68,2.7-8.47,9.27-8.47,14.67Z"/>
    </g>
  </g>
  <path id="Shadow" class="cls-13" d="M360.9,876.81c-.86-.5-1.77-.94-2.71-1.37l.33-.19-153.75-84.13v-56.62l-34.61,19.97v56.62l142.65,78.05c.32,3.91,3.02,7.8,8.22,10.77,10.99,6.38,28.85,6.38,39.87,0,5.53-3.17,8.28-7.38,8.28-11.57s-2.75-8.37-8.28-11.54Z"/>
  <path id="Shadow-2" data-name="Shadow" class="cls-13" d="M315.75,904.05c-.86-.5-1.77-.94-2.71-1.37l.33-.19-153.75-84.13v-56.62l-34.61,19.97v56.62l142.65,78.05c.32,3.91,3.02,7.8,8.21,10.77,10.99,6.38,28.85,6.38,39.88,0,5.53-3.17,8.28-7.38,8.28-11.57s-2.75-8.37-8.28-11.54Z"/>
  <path id="Shadow-3" data-name="Shadow" class="cls-13" d="M839.09,1004.11c-12.87-8.16-29.37-15.15-49.03-20.79-22.1-6.33-48.23-10.98-67.03-18.64-24.43-9.96-35.36-24.7-36.1-41.04-.42-9.26,3.52-20.17,23.26-29.95,5.05-2.5,11.3-4.93,18.22-6.3,10.15-2.01,19.32-1.31,26.77-.21,39.79,5.9,58.58,21.22,73.89,36.54,15.32,15.32,32.31,23,62.59,35.09,12.96,5.18,26.77,10.08,39.08,15.44.1.04.2.09.3.13,6.22,2.73,12.98,5.11,18.03,8.28,8.05,5.05,15.28,10.42,18.84,16.71,3.56,6.29,3.33,13.57-3.3,21.34-1.7,2-3.99,4.13-8.17,5.93-3.53,1.53-8.08,2.66-12.51,3.47-9.02,1.65-17.92,2.08-25.54,1.72-7.62-.36-14.1-1.46-20.11-2.75-26.23-5.61-43.82-15.26-59.19-24.99Z"/>
  <g id="Pipes">
    <g id="Drain">
      <g>
        <path class="cls-11" d="M198.49,726.24l11.28,6.51-22.61,39.16-11.3-6.53h0c-2.89-1.67-4.68-5.25-4.68-10.35,0-10.2,7.16-22.59,15.99-27.69,4.43-2.56,8.43-2.79,11.33-1.1Z"/>
        <path class="cls-12" d="M182.48,761.57c0-10.2,7.16-22.59,15.99-27.69,8.83-5.1,15.99-.97,15.99,9.23,0,10.2-7.16,22.6-15.99,27.69-8.83,5.1-15.99.97-15.99-9.23Z"/>
        <g class="cls-10">
          <path d="M187.17,758.86c0-7.21,5.06-15.98,11.31-19.58,6.24-3.61,11.31-.68,11.3,6.53,0,7.21-5.06,15.98-11.31,19.58-6.24,3.61-11.3.68-11.3-6.53Z"/>
        </g>
        <g class="cls-10">
          <path d="M201.78,741.19c0,7.21-5.06,15.98-11.31,19.58-1.01.58-1.96.93-2.89,1.18-.25-.93-.42-1.93-.42-3.1,0-7.21,5.06-15.98,11.31-19.58,1.01-.58,1.96-.93,2.89-1.18.25.93.42,1.94.42,3.1Z"/>
        </g>
      </g>
      <path class="cls-11" d="M190.48,766.2l132.53,76.6c1.24.72,2.01,2.04,2.01,3.48v45.32h31.99v-39.33h-.01v-10.21c0-10.25-5.47-19.73-14.35-24.86l-136.17-78.7c-2.05-1.19-4.88-1.03-8.01.78-6.24,3.61-11.3,12.37-11.3,19.58,0,3.61,1.27,6.14,3.32,7.32v.02Z"/>
      <path class="cls-8" d="M357,843.58c0-2.27-.28-4.51-.8-6.67.11.87.46,6.98-11.3,10.89-12.69,4.22-19.88,0-19.88,0v43.81h31.99v-37.82h0v-10.21Z"/>
      <g class="cls-10">
        <path d="M190.48,766.2l132.53,76.6c1.24.72,2.01,2.04,2.01,3.48v45.32h11.86v-33.8h0v-4.39c0-10.25-5.47-19.73-14.35-24.86l-133.62-77.23c-1,2.53-1.74,5.1-1.74,7.53,0,3.61,1.27,6.14,3.32,7.32v.02Z"/>
      </g>
      <g>
        <path class="cls-12" d="M363.65,873.44v13.06c0,3.37-2.21,6.74-6.66,9.29-8.87,5.13-23.23,5.13-32.07,0-4.45-2.55-6.66-5.92-6.66-9.26v-13.09h6.74c0,1.62.68,3.2,2.13,4.62.17.17.34.34.54.51.57.48,1.19.96,1.95,1.42,6.26,3.63,16.4,3.63,22.66,0,.76-.45,1.39-.93,1.95-1.42.2-.17.37-.34.54-.51,1.44-1.42,2.21-3,2.21-4.62h6.66Z"/>
        <path class="cls-11" d="M363.65,873.44c0,3.34-2.21,6.71-6.66,9.26-8.87,5.1-23.23,5.1-32.07,0-4.45-2.55-6.66-5.92-6.66-9.26s2.21-6.71,6.66-9.26c.03-.03.06-.03.08-.06v9.32h0c0,1.62.68,3.2,2.13,4.62.17.17.34.34.54.51.57.48,1.19.96,1.95,1.42,6.26,3.63,16.4,3.63,22.66,0,.76-.45,1.39-.93,1.95-1.42.2-.17.37-.34.54-.51,1.44-1.42,2.21-3,2.21-4.62v-9.26c4.45,2.55,6.66,5.92,6.66,9.26Z"/>
      </g>
    </g>
    <g id="Drain-2" data-name="Drain">
      <g>
        <path class="cls-11" d="M152.33,752.91l11.28,6.51-22.61,39.16-11.3-6.53h0c-2.89-1.67-4.68-5.25-4.68-10.35,0-10.2,7.16-22.59,15.99-27.69,4.43-2.56,8.43-2.79,11.33-1.1Z"/>
        <path class="cls-12" d="M136.31,788.24c0-10.2,7.16-22.59,15.99-27.69,8.83-5.1,15.99-.97,15.99,9.23,0,10.2-7.16,22.6-15.99,27.69-8.83,5.1-15.99.97-15.99-9.23Z"/>
        <g class="cls-10">
          <path d="M141,785.53c0-7.21,5.06-15.98,11.31-19.58,6.24-3.61,11.3-.68,11.3,6.53,0,7.21-5.06,15.98-11.31,19.58-6.24,3.6-11.3.68-11.3-6.53Z"/>
        </g>
        <g class="cls-10">
          <path d="M155.61,767.86c0,7.21-5.06,15.98-11.31,19.58-1.01.58-1.96.93-2.89,1.18-.25-.93-.42-1.93-.42-3.1,0-7.21,5.06-15.98,11.31-19.58,1.01-.58,1.96-.93,2.89-1.18.25.93.42,1.93.42,3.1Z"/>
        </g>
      </g>
      <path class="cls-11" d="M144.31,792.87l132.53,76.6c1.24.72,2.01,2.05,2.01,3.48v43.81h31.99v-37.82h0v-10.21c0-10.25-5.47-19.73-14.35-24.86l-136.17-78.7c-2.05-1.19-4.88-1.03-8.01.78-6.24,3.6-11.3,12.37-11.3,19.58,0,3.61,1.27,6.14,3.32,7.32v.02Z"/>
      <path class="cls-8" d="M310.83,868.74c0-2.27-.28-4.51-.8-6.67.11.87.46,6.98-11.3,10.89-12.69,4.22-19.88,0-19.88,0v43.81h31.99v-37.82h0v-10.21Z"/>
      <g class="cls-10">
        <path d="M144.31,792.87l132.53,76.6c1.24.72,2.01,2.05,2.01,3.48v43.81h11.86v-32.29h0v-4.39c0-10.25-5.47-19.73-14.35-24.86l-133.62-77.23c-1,2.53-1.73,5.1-1.73,7.53,0,3.61,1.27,6.14,3.32,7.32v.02Z"/>
      </g>
      <g>
        <path class="cls-12" d="M317.48,900.11v13.06c0,3.37-2.21,6.74-6.66,9.29-8.87,5.13-23.23,5.13-32.07,0-4.45-2.55-6.66-5.92-6.66-9.26v-13.09h6.74c0,1.62.68,3.2,2.13,4.62.17.17.34.34.54.51.57.48,1.19.96,1.95,1.42,6.26,3.63,16.4,3.63,22.66,0,.76-.45,1.39-.93,1.96-1.42.2-.17.37-.34.54-.51,1.44-1.42,2.21-3,2.21-4.62h6.66Z"/>
        <path class="cls-11" d="M317.48,900.11c0,3.34-2.21,6.71-6.66,9.26-8.87,5.1-23.23,5.1-32.07,0-4.45-2.55-6.66-5.92-6.66-9.26s2.21-6.71,6.66-9.26c.03-.03.06-.03.09-.06v9.32h0c0,1.62.68,3.2,2.13,4.62.17.17.34.34.54.51.57.48,1.19.96,1.95,1.42,6.26,3.63,16.4,3.63,22.66,0,.76-.45,1.39-.93,1.96-1.42.2-.17.37-.34.54-.51,1.44-1.42,2.21-3,2.21-4.62v-9.26c4.45,2.55,6.66,5.92,6.66,9.26Z"/>
      </g>
    </g>
  </g>
  <g id="Light">
    <g id="Wall">
      <path class="cls-7" d="M518.97,249.76c0-68.1-23.91-115.96-62.56-138.27-38.65-22.31-92.05-19.09-151.03,14.97-117.96,68.11-213.59,233.74-213.59,369.95,0,68.1,23.91,115.96,62.56,138.27,38.65,22.31,92.05,19.09,151.03-14.97,117.96-68.11,213.59-233.74,213.59-369.95Z"/>
      <path class="cls-2" d="M518.97,249.76c0-68.1-23.91-115.96-62.56-138.27-38.65-22.31-92.05-19.09-151.03,14.97-117.96,68.11-213.59,233.74-213.59,369.95,0,68.1,23.91,115.96,62.56,138.27,38.65,22.31,92.05,19.09,151.03-14.97,117.96-68.11,213.59-233.74,213.59-369.95Z"/>
      <g class="cls-4">
        <path class="cls-7" d="M185.55,587.97l-52.51,30.31c6.47,6.45,13.58,11.94,21.3,16.39,2.37,1.37,4.8,2.64,7.28,3.81l23.93-13.82c4.68-2.7,8.47-9.27,8.47-14.67v-17.14c0-5.4-3.79-7.59-8.47-4.89Z"/>
        <path class="cls-7" d="M302.7,277.02c0,5.4,3.79,7.59,8.47,4.89l78.41-45.27c4.68-2.7,8.47-9.27,8.47-14.67v-17.14c0-5.4-3.79-7.59-8.47-4.89l-78.41,45.27c-4.68,2.7-8.47,9.27-8.47,14.67v17.14Z"/>
        <path class="cls-7" d="M389.59,290.08l-78.41,45.27c-4.68,2.7-8.47,9.27-8.47,14.67v17.14c0,5.4,3.79,7.59,8.47,4.89l78.41-45.27c4.68-2.7,8.47-9.27,8.47-14.67v-17.14c0-5.4-3.79-7.59-8.47-4.89Z"/>
        <path class="cls-7" d="M246.51,173.92v-4c-10.99,9.97-21.6,20.73-31.79,32.13l23.32-13.46c4.68-2.7,8.47-9.27,8.47-14.67Z"/>
        <path class="cls-7" d="M440.66,485.82l-76.99,44.45c-4.68,2.7-8.47,9.27-8.47,14.67v17.14c0,5.4,3.79,7.59,8.47,4.89l24.2-13.97c19.18-20.36,36.93-43.03,52.79-67.18Z"/>
        <path class="cls-7" d="M465.69,381.32c-4.68,2.7-8.47,9.27-8.47,14.67v17.14c0,5.4,3.79,7.59,8.47,4.89l17.02-9.83c6.75-15.47,12.66-31.16,17.65-46.9l-34.67,20.02Z"/>
        <path class="cls-7" d="M246.51,534.5v-17.14c0-5.4-3.79-7.59-8.47-4.89l-78.41,45.27c-4.68,2.7-8.47,9.27-8.47,14.67v17.14c0,5.4,3.79,7.59,8.47,4.89l78.42-45.27c4.68-2.7,8.47-9.27,8.47-14.67Z"/>
        <path class="cls-7" d="M287.57,348.88l-78.41,45.27c-4.68,2.7-8.47,9.27-8.47,14.67v17.14c0,5.4,3.79,7.59,8.47,4.89l78.42-45.27c4.68-2.7,8.47-9.27,8.47-14.67v-17.14c0-5.4-3.79-7.59-8.47-4.89Z"/>
      </g>
    </g>
    <g id="Light-2" data-name="Light">
      <path class="cls-5" d="M655.2,574.25l-421.83,72.67v-.02c-30.01,4.94-56.94.55-79.04-12.21-38.64-22.32-62.56-70.16-62.56-138.26,0-136.22,95.65-301.85,213.61-369.97,58.98-34.05,112.38-37.28,151.02-14.96,22.1,12.76,39.37,33.87,50.11,62.34l.02-.02,148.66,400.44Z"/>
      <path class="cls-1" d="M655.2,574.25l-421.83,72.67v-.02c-30.01,4.94-56.94.55-79.04-12.21-38.64-22.32-62.56-70.16-62.56-138.26,0-136.22,95.65-301.85,213.61-369.97,58.98-34.05,112.38-37.28,151.02-14.96,22.1,12.76,39.37,33.87,50.11,62.34l.02-.02,148.66,400.44Z"/>
    </g>
  </g>
  <g id="Character">
    <g id="Arm">
      <path id="Arm-2" data-name="Arm" class="cls-14" d="M939.48,562.4s-21.41-50.76-21.41-50.76c-10.23-26.17-6.38-61.54-6.38-61.54,12.32-.23,23.87,3.96,31.86,18.42,7.98,14.47,23.77,66,27.39,77.09,3.71,12.51,4.58,17.42,5.26,29.8.7,12.9-2.59,36.68-3.43,49.53-.39,5.94-.34,11.65-.32,17.66.02,6.26-1.58,12.29-2.42,18.51-.39,2.87-1.82,5.75-3.63,8-1.19,1.48-3.08,1.96-4.21,3.35-1.17,1.44-1.1,3.42-2.79,4.7-1.88,1.42-4.39,1.21-6,2.61-1.69,1.47-2.99,3.39-4.93,4.69-1.75,1.18-3.09,1.77-4.24,3.62-.94,1.52-1.55,4.64-3.73,4.82-2.44.2-3.25-2.04-3.75-4.02-.87-3.49.22-8.31,1.82-11.49,1.85-3.68,2.81-7.75,5.08-11.21,2.06-3.13,2.81-7.34,3.24-11.08.3-2.61-.52-5.74-3.45-3.7-3.45,2.4-6.77,6.73-11.43,6.78-3.22.04-3.85-2.39-2.41-4.78,2.42-4.01,4.39-7.96,6.21-12.31,1.81-4.33,3.14-8.81,5.07-13.07,1-2.22,2.29-4.39,3.59-6.47,3.63-5.82,2.2-12.59,1.55-19-.9-8.95-4.57-28.8-6.53-40.15Z"/>
      <path class="cls-11" d="M909.6,448.1c17.36,1.29,27.07,4.87,36.35,21.88s21.64,58.36,24.35,66.87c2.71,8.5,5.42,18.13,6.48,31.74.81,10.43.13,18.59.13,18.59,0,0-2.36,4.55-16.27,4.55s-18.01-2.45-18.01-2.45l-4.41-26.54-28.62-63v-51.64Z"/>
    </g>
    <g id="Bottom">
      <g>
        <g>
          <g>
            <path class="cls-12" d="M706.86,913.75c-1.41-.61-2.58,2.93-2.23,4.92,1.01,5.73,6.51,13.32,16.31,19.06,9.79,5.74,31.33,9.62,37.66,11.41,6.33,1.78,16.1,8.44,22,11.46,10.76,5.5,19.54,4.86,24.44,2.42,1.92-.96,2.74-3.02,3.28-4.86,1.29-4.35,1.19-5.34.7-5.46l-102.16-38.94Z"/>
            <g>
              <path class="cls-8" d="M811.85,939.72c-.45,4.51-2.03,11.77-4.03,15.88-2.35,2.79-6.45,3.48-9.55,3.45-8.17-.07-15.3-2.87-22.91-7.25-4.56-2.63-9.53-5.47-15.51-7.05-6.57-1.73-21.28-4.89-27.78-6.89-5.53-1.71-12.22-5.1-16.53-9.09-3.64-3.37-8.7-9.87-9.07-13.65,1.1-8.21,3.39-12.57,8.7-13.75,5.62-1.25,12.54.38,22.09,2.69,2.86.69,6.43,1.67,7.98,1.99,5.85,1.2,11.26,2.48,15.63,3.6,3.74.95,7.42,1.84,11.29,1.1,1.85-.35,3.31-.85,4.56-2.25,1.53-1.7,2.45-4.6,4.23-4.2,0,0,30.18,15.74,32.68,16.84,2.88,1.27-.44,4.9-1.8,18.58Z"/>
              <path class="cls-3" d="M706.47,915.12c.49-5.71,2.5-13.19,9.22-14.08,10.06-1.36,19.89,2.75,29.56,5.01,0,0-11.73-2.7-11.73-2.7-13.53-2.84-25-6.01-27.05,11.77h0Z"/>
            </g>
            <path class="cls-6" d="M742.88,904.95c-1.13.32-2.49,1.31-3.26,2.03-1.05,1-1.88,2.01-2.66,3.23-.95,1.49.95,2.47,2.34.85.95-1.11,1.97-2.38,3.72-3.69.84-.63,2.45-1.28,3.41-1.08.72.15,1.67.35,1.67.35-.04-1.35-3.72-2.11-5.23-1.69Z"/>
            <path class="cls-6" d="M757.83,907.93c-1.1-.5-2.13-.49-3.3-.06-1.38.51-2.45,1.52-3.35,2.64-.73.91-2.36,3.33-2.84,4.4-.45,1.01,2.02,1.77,2.66.72.63-1.04,1.84-2.95,2.68-3.99.51-.63,2.68-2.97,4.47-2.7l.78.2c.12-.36-.28-.77-.6-.96-.16-.1-.33-.18-.5-.26Z"/>
            <path class="cls-6" d="M766.36,910.41c-.91.02-1.46-.05-2.22.48-.72.49-1.64,1.37-2.14,2.1-1.36,2.03-1.75,3.03-2.41,4.92-.47,1.34,2.1,1.78,2.47.9,1.18-2.76,1.78-4.62,3.8-6.26,1.67-1.35,2.84-1.54,2.84-1.54.01-.26-.34-.41-.59-.45-.39-.06-1.35-.17-1.75-.16Z"/>
          </g>
          <path class="cls-14" d="M825.59,887.64s-9.47,28.75-12.36,35.31c-.92,2.1-5.3,1.64-7.71,1.87-2.41.23-6.21.61-8.61,1.83-7.09,3.6-11.54,3.54-11.75-6.84-.04-2.13-1.01-3.35-3.6-3.69-1.94-.26-4.07-.04-5.79-1.01-.22-.28.09-.66.37-.88,2.18-1.66,3.37-2.76,4.33-6.75,2.96-12.31,4.49-22.91,7.71-38.03l37.42,18.18Z"/>
        </g>
        <g>
          <path class="cls-12" d="M848.4,603.22s-14.47,17.34-23.21,49.77c-10.62,39.36-14.73,69.64-18.05,91.61-2.09,13.8-3.62,23.66-7.38,48.8-3.13,20.95-16.88,98.84-16.88,98.84,0,0,10.09,8.73,18.58,11.94,7.9,2.99,15.21,4.18,18.11,2.99,0,0,9.73-25,21.78-57.72,7.58-20.58,11.76-35.45,13.86-46.21,1.58-8.1,1.19-22.5,1.04-29.77l64.71-99.97s6.46-6.72,12.08-20.85c8.51-21.37-2.36-52.15-2.36-52.15l-82.29,2.72Z"/>
          <path class="cls-3" d="M825.19,652.98c-10.32,38.58-15.92,79.92-21.71,119.48-5.93,38.79-13.73,81.01-20.6,119.78,6.06-38.97,13.87-81.07,19.52-119.94,6.1-39.54,11.64-80.9,22.79-119.31h0Z"/>
          <path d="M912.1,631.28h-79.48c-2.62,6.24-5.21,13.48-7.42,21.7-9.5,35.21-13.78,63.12-16.96,84.35,1.93,13.01,4.12,26.36,6.15,35.56,5.34,24.24,8.67,41.37,12.9,51.38,4.22,9.99,14.37,24.17,14.41,24.22,7.35-20.08,11.45-34.68,13.52-45.26,1.58-8.1,1.19-22.5,1.04-29.77l47-72.61,3.65-22.49c12.01-19.57,10.68-34.25,5.19-47.08Z"/>
        </g>
      </g>
      <g>
        <g>
          <path class="cls-14" d="M939.88,932.94c-4.08-6.53-6.29-19.09-15.27-44.63l-34.95,28.65,20.72,32.93c1.09,1.86,1.12,4.67,1.5,5.22,4.45,6.4,27.99-22.16,27.99-22.16Z"/>
          <g>
            <path class="cls-8" d="M952.22,946.86c-.05-.38.15-3.45.05-3.82-.87-3.31-2.91-4.23-5.54-6.08-3.26-2.3-6.42-5.04-7.26-6.2-.88-1.22-1.05-1.85-2.42-2.41-2.33-.95-6.07-1.02-10.68,1.4-7.56,3.97-9.86,8.75-9.43,13.93.33,3.95.66,9.2-2.82,11.55-1.45.98-3.74-5.33-3.74-5.33-2.15,3.6.87,8.58,2.44,15.87,1.08,5,.82,7.18.21,12.26-.76,6.4-1.65,6.37-5.05,6.82-2.93.38-11.23-.17-16.28,3.35-6.96,4.86-5.1,11.33-5.1,11.33.9,2.46,8.47,14.39,36.12,9.94,8.02-1.29,24.87-13.9,24.61-15.08-.24-1.1.03-2.52.06-3.62.1-2.83.22-5.65.34-8.48.11-2.58-.15-5.57.47-8.08.55-2.23.81-4.36,1.03-6.68.53-5.68,1.06-11.35,1.59-17.03.15-1.63,1.6-2.01,1.38-3.62Z"/>
            <path d="M955.7,945.74c2.73,2.64,1.07,10.3-2.59,19.48-1.62,4.08-4.64,11.09-3.76,18.55.89,7.46,1.04,10.98-.88,14.48-3.01,5.47-19.08,12.47-28.56,14.66,0,0,8.68-10.9,9.63-27.36.95-16.47,2.21-27.08,9.74-34.38,9.52-9.23,16.41-5.43,16.41-5.43Z"/>
            <path class="cls-12" d="M886.61,999.52s5.55,10.39,26.94,10.05c8.42-.13,12.93-4.24,13.14-17.04.25-15.43,1.49-31.01,6.48-38.66,4.99-7.66,12.94-11.37,19.1-10.83,1.07.17,2.42,1.19,3.43,2.7,0,0-6.17-2.03-15.77,5.94-7.09,5.88-9,18.16-8.89,33.42.05,6.56.45,14.01-1.48,18.99-1.77,4.59-5.7,7.74-10.21,9-11.63,3.27-27.55-2.12-31.57-7.03-2.31-3.28-1.15-6.54-1.15-6.54Z"/>
            <g>
              <path class="cls-6" d="M912.31,982.03s-1.56,1.1-1.73,2.55c-.17,1.45.33,4.8,3.37,6.7,1.29.8,2.41.52.37-2.18-2.05-2.7-2.01-7.07-2.01-7.07Z"/>
              <path class="cls-6" d="M913.46,974.05s-.68.44-.85,2.58c-.09,1.15,1.7,5.78,3.95,6.88,2.25,1.1,1.03-1.49.06-2.77-1.07-1.4-2.96-4.57-3.16-6.7Z"/>
              <path class="cls-6" d="M912.71,965.23s-.73.2.05,3.15c.26,1,3.21,3.92,4.66,4.09,1.45.17,2.15-.55.37-1.84-1.4-1.02-4.81-3.97-5.09-5.4Z"/>
            </g>
          </g>
        </g>
        <path class="cls-12" d="M898.61,603.22c3.78,3.87,13.18,16.84,14.72,36.81.65,8.45-1.76,24.39-11.63,36.38-3.02,44.28-5.9,127.9-5.9,127.9,10.28,14.52,12.88,23.83,19.66,45.43,4.11,13.11,18.36,65.15,18.36,65.15-20.83,3.13-33.48,21.45-33.48,21.45,0,0-28.88-46.5-48.08-78.87-14.05-23.68-18.87-33.88-23.59-47.31-4.33-12.34-7.46-27.28-11.68-56.09-4.22-28.82-8.35-66.77-10.42-95.13-2.07-28.37-.88-58.02-.88-58.02l92.92,2.31Z"/>
        <path class="cls-3" d="M900.33,936.33c-9.96-15.76-29.62-47.49-39.26-63.43-12.64-21.37-26.72-42.32-34.06-66.29-6-24.18-10.18-48.73-13.24-73.44-3.09-24.68-5.57-49.44-7.21-74.25,1,12.39,2.22,24.77,3.58,37.12,3.92,37.02,8.7,74.15,17.92,110.27,7.17,23.83,21.15,44.88,33.63,66.21,0,0,38.64,63.81,38.64,63.81h0Z"/>
        <path d="M936.15,637.92c-2.87-.82-6.96-3.57-8.5-6.04-.93-1.48-1.49-3.6-2.2-6.27-.77-2.92-1.74-6.55-3.57-10.64l-2.19.98c1.75,3.92,2.65,7.3,3.44,10.28.76,2.87,1.36,5.13,2.48,6.92,1.84,2.94,6.58,6.26,10.33,7.16.08-.8.15-1.59.21-2.39Z"/>
        <path d="M879.28,663.3c.61-.02,1.13-.07,1.53-.15,3.48-.77,6.18-3.1,11.56-9.99,4.1-5.24,3.68-9.01,2.99-15.25-.25-2.29-2.67-14.53-2.82-17.76l-2.3,1.28c.16,3.3,2.48,14.42,2.74,16.75.69,6.2,1,9.03-2.49,13.5-4.98,6.37-7.36,8.5-10.19,9.12-2.74.62-14.9-1.4-18.14-3.64-1.87-1.3-5-17.3-6.83-31.39l-2.38.31c.92,7.12,4.22,30.54,7.85,33.05,3.22,2.23,13.66,4.29,18.49,4.16Z"/>
      </g>
    </g>
    <g id="Top">
      <g>
        <polygon class="cls-14" points="856.05 435.18 860.43 467.22 903.95 465 899.24 430.31 856.05 435.18"/>
        <g>
          <g>
            <path class="cls-9" d="M838.73,375.27c-3.34,4.25-13.57,15.8-15.4,18.82l9.75,5.92,5.65-24.75Z"/>
            <path class="cls-3" d="M838.73,375.27c-4.44,6.82-10.1,12.68-15.4,18.82,4.09-7.04,9.8-12.96,15.4-18.82h0Z"/>
          </g>
          <path class="cls-14" d="M862.92,343.05c-13.45-1.45-22.17,8.09-26.08,36.7-.15,1.12-1.81,2.88-3.07,7.16-5.39,18.37-2.37,35.86.73,40.51,7.79,6.26,16.45,8.6,29,7.53,9.56-.81,33.95-3.72,46.32-16.63,14.55-15.19,21.89-38.08,11.56-49.96-14.54-16.72-51.06-24.53-58.46-25.32Z"/>
          <path class="cls-3" d="M862.92,343.05c-20.22-1.69-23.01,23-25.9,37.82-5.51,10.44-6.36,22.99-5.51,34.61.45,4.08,1,8.29,2.99,11.95-2.16-3.58-2.89-7.8-3.52-11.89-1.24-11.77-.48-24.49,5.06-35.15,2.66-14.88,6.56-40,26.88-37.34h0Z"/>
          <path class="cls-9" d="M834.51,427.43c1.72,2.57,14.04,8.89,21.77,9.38l-.73-6.02s-10.45-.04-21.04-3.36Z"/>
        </g>
        <path class="cls-11" d="M860.27,393.21c.93,2.19,3.15,2.38,4.49.74,1.61-1.97,2.87-4.09,4.91-5.69,2.36-1.85,5.33-3.04,8.31-2.81,11.29.86,8.53,15.73,2.99,20.9-9.07,8.47-13.89,1.15-13.89,1.15,0,0-6.51,14.38,2.98,22.79,0,0,16.38,7.08,29.25,3.09,9.63-10.37,16.07-16.92,22.54-25.84,15.33-21.14,15.35-42.04,5.52-48.02.55-7.5-3.51-18.78-18.91-25.29-14.68-6.21-24.5-5.59-35.12-5-10.61.59-23.66,5.43-33.51-2.8-2.47,5.9-1.84,13.01,1.63,18.38-3.13-1.41-7.26.1-8.74,3.2s-.08,7.26,2.98,8.82c-2.17,1.08-3.18,3.92-2.4,6.21.78,2.3,3.1,3.9,5.52,4.08,2.56.19,4.15-.06,6.67-.43,3.1,8.67,12.88,11.7,18.69,11.33-.16-.03-.91,1.19-1.02,1.35-.33.48-.64.99-.92,1.5-.57,1.03-1.03,2.11-1.39,3.23-.72,2.24-1.01,4.61-.82,6.96.06.74-.06,1.44.24,2.13Z"/>
        <path class="cls-3" d="M839.83,326.44c-2.33,5.95-1.65,12.96,1.81,18.27l.38.58-.64-.28c-7.74-2.87-12.64,7.41-5.57,11.63,0,0,.39.2.39.2l-.39.19c-5.51,3.52-1.47,10.52,4.43,10.06,1.76.07,3.52-.17,5.26-.39-2.6.42-5.3.9-7.93.34-4.87-1.08-6.61-7.82-1.96-10.4,0,0,0,.39,0,.39-7.72-4.53-2.41-15.57,5.94-12.4l-.26.3c-3.49-5.45-4.07-12.63-1.46-18.5h0Z"/>
      </g>
      <path class="cls-7" d="M921.68,452.96c11.29,6.32,19.86,27.41,19.03,45.02-.53,11.14-4.44,39.91-7.78,65.35-1.05,8.02,2.14,21.54,3.62,37.8,1.1,12.06,1.24,24.88,1.24,24.88,0,0-15.13,18.73-56.66,21.17-53.01,3.12-76.49-9.7-76.49-9.7,0,0-.33-43.2.95-77.4,1.89-50.73,2-65.57,9.93-82.84,2.62-5.1,5.37-16.47,14-18.72,6.84-1.78,22.63-5.56,28.88-6.51,10.25,2.64,36.82,2.86,43.41-2.75l-.11-1.48c11.4-.14,13.01,1.27,19.98,5.17Z"/>
      <g>
        <g>
          <path class="cls-11" d="M637.62,582.75c1.73.4,4.06-.51,6.58-2.73,4.74-4.16,8.96-11.99,9.83-18.24.46-3.33-.05-5.77-1.34-7-.82-.78-9.2-8.78-10.41-9.94-2.12-2.02-6.41-2.92-10.36-.88-8.71,4.52-15.78,17.63-14.76,27.4.46,4.42,19.35,11.14,20.45,11.39Z"/>
          <path class="cls-12" d="M653.48,560.76c-.1-3.5-1.4-5.93-3.43-7.02s-4.76-.84-7.75,1c-5.96,3.68-10.63,12.35-10.43,19.35.1,3.5,1.4,5.93,3.43,7.02s4.76.84,7.75-1c5.96-3.68,10.63-12.35,10.43-19.35Z"/>
        </g>
        <g>
          <path class="cls-11" d="M707.96,612.94c1.21.62,2.84.45,4.58-.63,3.46-2.15,6.16-7.15,6.05-11.23-.06-2.06-.81-3.5-1.99-4.18-.72-.41-65.13-37.15-66.16-37.74-1.72-.98-3.97-1.02-6.33.12-4.77,2.32-8.12,8.53-7.43,13.79.34,2.6,1.61,4.46,3.38,5.35,1.06.54,67.17,34.13,67.91,34.5Z"/>
          <path class="cls-12" d="M718.59,601.08c-.06-2.06-.81-3.5-1.99-4.17-1.19-.68-2.81-.57-4.59.48-3.58,2.13-6.36,7.29-6.17,11.45.09,2.06.9,3.48,2.12,4.1,1.21.62,2.84.45,4.58-.63,3.46-2.15,6.16-7.15,6.05-11.23Z"/>
        </g>
      </g>
      <g id="Arm-3" data-name="Arm">
        <path class="cls-14" d="M790.93,591.29c5.98-2,10.38-8.93,18.97-26.75,10.7-22.21,16.49-27.2,24.36-49.91,6.6-16.64-2.13-47.3-6.19-53.7-13.4,4.78-22.71,9.18-31.74,27.95-8.12,16.88-24.36,50.91-31.74,65.88,0,0-43.09,9.29-54.67,10.07-4.49.3-8.96-.36-13.04-2.44-2.5-1.27-4.97-1.86-7.83-1.85-1.06,0-2.14.09-3.14.45-1.97.71-3.4,2.38-4.91,3.84-2.74,2.65-6.08,4.35-9.07,6.6-3.49,2.62-7.61,4.43-11.14,7.05-3.02,2.24-6.38,4.11-8.29,7.5-.32.56-.6,1.16-.69,1.79-.16,1.11.29,2.26,1.05,3.09.75.83,1.78,1.38,2.85,1.72,1.44.46,3.11.61,4.35,1.53,1.43,1.05,1.55,3.13,2.85,4.38,2.01,1.93,5.34,1.64,7.64,3.22,1.79,1.23,2.76,3.47,4.68,4.48,1.01.53,2.17.66,3.3.78,2.01.21,4.01.82,6.04.82,2.42,0,3.46-1.14,5.47-2.26,6.9-3.84,10.63-8.47,22.83-9.28,8.18-.55,72.11-2.95,78.09-4.95Z"/>
        <path class="cls-11" d="M829.35,458.52c-14.57,3.46-23.18,8.69-32.76,26.27-8.87,16.27-32.86,68.3-32.86,68.3l-24.07,6.78s-6.12,7.71-3.73,19.49c2.29,11.28,7.3,16.35,7.3,16.35,0,0,12.33-.34,33.34-1.07,20.69-.72,22.52-5.59,27.13-14.71,4.61-9.12,32.89-64.28,32.89-64.28,0,0,11.35-40.69-7.23-57.13Z"/>
        <path class="cls-3" d="M858.41,452.01c-9.79,1.81-19.46,4.3-29.08,6.82-6.09,1.25-14.53,4.4-19.86,9.28-9.31,8.37-14.24,20.22-19.8,31.19-8.74,17.88-17.02,35.98-25.47,54.01l-.1.22-.23.06-24.09,6.72c-11.73,1.79-24.21,5.72-36.08,4.62-4.09-.37-7.54-3.03-11.47-3.8-1.93-.32-4-.46-5.87.02-1.88.53-3.31,2.02-4.73,3.43-6.08,5.45-13.35,9.15-20.13,13.49-3.2,2.39-6.96,4.33-9.03,7.91,2-3.61,5.76-5.62,8.91-8.06,6.69-4.41,13.94-8.31,19.85-13.73,1.41-1.4,2.88-2.99,4.96-3.6,2.05-.53,4.12-.39,6.15-.07,4.03.75,7.34,3.37,11.46,3.73,11.89.99,24.04-2.95,35.76-4.8-.17.04,24.05-6.85,24.02-6.84,0,0-.33.28-.33.28,8.29-18.1,16.86-36.08,25.64-53.95,5.65-11.01,10.69-22.91,20.14-31.3,5.72-4.88,13.27-8.12,20.51-9.23,8.42-2.36,19.45-4.73,28.86-6.38h0Z"/>
      </g>
    </g>
    <path id="Shadow-4" data-name="Shadow" class="cls-10" d="M820.05,772.81c-10.02,37.43-17.4,75.59-22.01,114.08-1.49,12.46-3.38,26.25-13.03,34.25-7.4,6.13-17.62,7.27-27.2,7.97-17.97,1.27-37.45,1.38-52.52-8.02,1.93,5.34,7.18,11.69,15.64,16.65,9.8,5.73,31.33,9.62,37.67,11.4,6.33,1.78,16.08,8.44,21.99,11.47,10.76,5.49,19.55,4.85,24.45,2.42,1.91-.97,2.72-3.03,3.27-4.88,1.3-4.35,1.19-5.34.7-5.45l-.02-.02c1.41-4.09,2.48-9.38,2.86-12.96,1.3-13.18,4.42-17.02,2.06-18.43,1.25-3.16,3.14-8.48,5.03-13.95.2-.07.44-.09.62-.18,0,0,9.73-25,21.79-57.71.81-2.22,1.58-4.37,2.33-6.46-8.17-13.99-12.35-22.25-15.03-32.84-2.64-10.39-5.54-20.63-8.61-37.34ZM976.79,568.58c-1.08-13.6-3.78-23.24-6.48-31.74-2.72-8.5-15.09-49.87-24.36-66.87-9.27-17-18.98-20.58-36.36-21.88h0c-2.04-.25-4.53-.35-7.89-.31,0,0,.07.83.09,1.25l-2.17-15.97c9.45-10.17,15.84-16.7,22.23-25.5,15.33-21.15,15.36-42.05,5.51-48.02.57-7.51-3.49-18.78-18.89-25.28-5.78-2.44-10.79-3.82-15.38-4.57-5.18.62-10.3,1.71-15.25,3.32-6.83,2.2-13.62,5.56-17.97,11.27-3.78,5.01-5.34,11.29-6.81,17.38-4.72,19.53-9.45,39.43-7.89,59.44.26,3.4.75,6.88,2.46,9.82,1.52,2.55,5.1,5.36,8.63,5.89,0,0,9.47.62,14.21.7.66,4.04,1.6,10.1,2.26,14.15.22,1.36.44,2.83-.18,4.06-.81,1.63-2.72,2.31-4.46,2.79-17.18,4.72-37.21,5.14-49.29,18.23-4.53,4.9-7.34,11.07-10.1,17.13-6.28,13.84-12.57,27.68-18.85,41.5-4.09,9.03-8.46,18.41-16.26,24.52-14.08,11.03-34.18,8.04-51.54,12.32-12.59,3.12-23.79,10.13-36.25,13.6-2.86.81-5.71,1.58-8.61,2.15-3.03.59-6.11.33-9.14.79-2.2.33-4.57,1.93-4.85,4.28-.11.99.15,2.64.59,3.54.42.83,1.01,2.37,2.88,3.69,1.34.35,2.7.68,3.82,1.45,1.8,1.23,2.77,3.47,4.68,4.48,1.01.53,2.17.66,3.3.77,2.02.22,4.02.83,6.04.81,2.42,0,3.47-1.14,5.47-2.24.55-.31,1.05-.62,1.56-.92,5.98-3.62,10.04-7.62,21.29-8.37.55-.04,1.32-.09,2.33-.13,5.1-.26,15.62-.72,27.28-1.27.48.59.77.88.77.88,0,0,12.32-.33,33.32-1.05,20.69-.72,22.52-5.6,27.13-14.72.35-.68.83-1.63,1.41-2.77v.11c6.74-13.11,18.74-36.75,22.69-44.46,0,0-1.45,63.64-1.3,91.36.29,51.56,8.37,102.7,16.41,153.62,2,12.52,7.32,24.43,11.77,36.36,4.92,13.2,10,26.34,15.44,39.32,10.7,25.55,22.87,50.59,37.83,73.96,3.25,5.1,6.68,10.17,8.68,15.88,2.77,7.93,2.61,16.54,2.35,24.91-.2,6.9-.48,13.91-2.97,20.34-4.48,11.73-19.66,12.85-29.15,5.93-.86,2.81-.24,5.01-.24,5.01,0,0-1.14,3.27,1.16,6.55,4.02,4.92,19.92,10.3,31.57,7.03.2-.04.4-.13.57-.18,9.47-2.17,25.55-9.18,28.56-14.65,1.93-3.49,1.78-7.03.88-14.48-.88-7.47,2.13-14.48,3.76-18.56,3.67-9.18,5.32-16.83,2.59-19.48-1.01-1.49-2.35-2.53-3.43-2.7-.88-3.3-2.92-4.22-5.54-6.06-3.27-2.31-6.44-5.05-7.27-6.22-.68-.94-.94-1.54-1.67-2.02-1.41-3.38-2.77-7.86-4.55-13.73.2-.04.37-.09.57-.11,0,0-14.26-52.04-18.36-65.15-6.77-21.59-9.38-30.91-19.66-45.43,0,0,1.87-54.15,4.17-98.37l21-32.45s4.93-5.13,9.93-15.86c-.06.13-.12.27-.18.39.37.11.79.18,1.27.15,4.66-.04,7.97-4.37,11.42-6.79.92-.64,1.63-.72,2.15-.53.09-.04.15-.11.24-.15,3.71-1.78,3.93,6.52,3.87,8.37-.15,4.22-1.47,8.35-3.03,12.26-2.59,6.46-5.87,12.96-5.56,19.9,0,.48.07.97.2,1.43,1.54-.77,2.11-3.27,2.92-4.59,1.14-1.85,2.5-2.44,4.24-3.62,1.93-1.3,3.23-3.21,4.92-4.68,1.63-1.41,4.13-1.19,6.02-2.61,1.69-1.27,1.6-3.25,2.79-4.7,1.12-1.41,3.01-1.87,4.22-3.36,1.8-2.24,3.23-5.12,3.62-8,.83-6.22,2.44-12.24,2.42-18.5-.02-6.02-.07-11.71.33-17.66.59-9.29,2.48-24.3,3.23-36.77.68-.57.9-1.01.9-1.01,0,0,.68-8.15-.11-18.58ZM953.46,617.06c-1.27,4.72-4.92,8.33-7.71,12.32-5.58,8-7.89,17.95-13.71,25.79,0,.02-.02.02-.04.04,0,0,0,0-.02.02.36-.83.72-1.7,1.08-2.59,3.08-7.69,3.6-16.61,3.05-24.89,1.16-1.08,1.69-1.76,1.69-1.76,0,0-.15-12.83-1.25-24.87-1.47-16.28-4.66-29.79-3.6-37.81,1.25-9.55,2.59-19.57,3.79-28.95,0,0,0,.01,0,.02v.02c3.36,6.72,6.39,13.58,8.81,20.58,5.93,17.24,7.4,35.61,8.35,53.69.15,2.81.29,5.67-.44,8.37Z"/>
  </g>
  <path class="cls-7" d="M221.73,412l-23.07,13.32v55.49l-31.84,18.39,37.38-140.53-24.8,14.32-40.08,149.86v21.45l59.34-34.26v32.11l23.07-13.32v-32.11l15.61-9.01v-29.22l-15.61,9.01v-55.49ZM305.67,300.09c-33.1,19.11-59.93,70.37-59.93,114.5s26.83,64.41,59.93,45.3c33.09-19.11,59.92-70.37,59.92-114.5s-26.83-64.41-59.92-45.3ZM305.67,429.13c-20.36,11.75-36.86-.72-36.86-27.85s16.5-58.68,36.86-70.43c20.36-11.75,36.85.73,36.85,27.87s-16.49,58.66-36.85,70.41ZM455.83,332.33v-55.49l-23.07,13.32v55.49l-31.84,18.39,37.38-140.53-24.8,14.32-40.08,149.86v21.45l59.34-34.26v32.11l23.07-13.32v-32.11l15.61-9.01v-29.22l-15.61,9.01Z"/>
  <g id="_404" data-name="404">
    <g>
      <path class="cls-8" d="M218.55,322.09c.16-.09.29-.09.41,0,.11.09.17.23.17.45v2.04c0,.21-.06.43-.17.64-.12.22-.25.37-.41.47l-9.46,5.46c-.16.09-.29.09-.41,0-.11-.09-.17-.24-.17-.45v-18.55c0-.21.06-.43.17-.65.12-.22.25-.37.41-.47l9.28-5.36c.16-.09.29-.09.41,0,.12.09.17.24.17.45v2.04c0,.21-.06.43-.17.65-.12.22-.25.37-.41.47l-6.96,4.02v4.57l6.49-3.74c.16-.09.29-.09.41,0,.12.09.17.24.17.45v2.04c0,.21-.06.43-.17.64-.12.22-.25.37-.41.47l-6.49,3.74v4.77l7.13-4.12Z"/>
      <path class="cls-8" d="M227.94,300.16c1.8-1.04,3.16-1.27,4.09-.7.93.57,1.4,1.84,1.4,3.81,0,1.4-.24,2.73-.72,3.99-.48,1.26-1.19,2.4-2.12,3.42l2.97,5.38c.04.09.06.18.06.28,0,.17-.05.35-.14.53-.09.18-.21.31-.33.38l-1.83,1.06c-.29.16-.5.2-.64.09-.14-.1-.23-.22-.29-.33l-2.82-5.06-2.86,1.65v6.69c0,.21-.06.43-.17.64-.11.22-.25.38-.41.47l-1.74,1.01c-.16.09-.29.09-.41,0s-.17-.23-.17-.45v-18.55c0-.21.06-.43.17-.65.12-.22.25-.37.41-.47l5.56-3.21ZM224.7,311.07l3.12-1.8c.82-.47,1.47-1.04,1.96-1.71.49-.66.73-1.53.73-2.6s-.24-1.65-.73-1.73c-.49-.08-1.14.11-1.96.59l-3.12,1.8v5.46Z"/>
      <path class="cls-8" d="M242.36,291.83c1.8-1.04,3.16-1.27,4.09-.7.93.57,1.4,1.84,1.4,3.81,0,1.4-.24,2.73-.72,3.99-.48,1.26-1.19,2.4-2.12,3.42l2.97,5.38c.04.09.06.18.06.28,0,.17-.05.35-.14.53-.09.18-.21.31-.33.38l-1.83,1.06c-.29.17-.5.2-.64.09-.14-.1-.23-.22-.29-.33l-2.82-5.06-2.87,1.65v6.69c0,.21-.06.43-.17.64-.12.22-.25.38-.41.47l-1.74,1.01c-.16.09-.29.09-.41,0-.12-.09-.17-.23-.17-.45v-18.55c0-.21.06-.43.17-.65.11-.22.25-.37.41-.47l5.56-3.21ZM239.13,302.74l3.12-1.8c.82-.47,1.47-1.04,1.96-1.71.49-.66.73-1.53.73-2.6s-.24-1.65-.73-1.73c-.49-.08-1.14.11-1.96.59l-3.12,1.8v5.46Z"/>
      <path class="cls-8" d="M250.14,294.83c.04-1.1.2-2.19.46-3.3.27-1.1.66-2.15,1.17-3.15.52-1,1.16-1.93,1.94-2.79.78-.86,1.69-1.6,2.76-2.21,1.05-.61,1.96-.93,2.74-.97.77-.05,1.42.14,1.94.55.52.41.91,1,1.18,1.78.27.78.43,1.71.47,2.77.01.36.02.75.03,1.19,0,.44.01.89.01,1.36s0,.93-.01,1.37c0,.45-.02.85-.03,1.22-.04,1.1-.2,2.2-.46,3.3-.27,1.1-.66,2.15-1.18,3.15-.52,1-1.17,1.92-1.95,2.78-.79.85-1.7,1.58-2.75,2.19-1.06.61-1.98.94-2.76.99-.77.04-1.42-.13-1.94-.53-.51-.4-.91-1-1.17-1.79-.27-.79-.42-1.72-.46-2.76-.01-.35-.03-.75-.03-1.19,0-.44-.01-.89-.01-1.36s0-.92.01-1.37c0-.45.02-.85.03-1.23ZM259.9,289.34c-.06-1.34-.39-2.22-1-2.62-.61-.4-1.42-.32-2.42.26-1.01.58-1.81,1.42-2.42,2.53-.61,1.11-.94,2.37-1,3.78-.03.74-.04,1.56-.04,2.45s.01,1.69.04,2.4c.06,1.34.39,2.21,1,2.61.61.4,1.42.3,2.42-.28,1-.58,1.81-1.42,2.42-2.52.61-1.1.94-2.35,1-3.76.03-.75.04-1.56.04-2.45s-.01-1.69-.04-2.4Z"/>
      <path class="cls-8" d="M271.79,274.84c1.79-1.04,3.16-1.27,4.09-.7.93.57,1.4,1.84,1.4,3.81,0,1.4-.24,2.73-.72,3.99-.48,1.26-1.19,2.4-2.12,3.42l2.97,5.38c.04.09.07.18.07.28,0,.17-.05.35-.14.53-.09.18-.21.31-.33.38l-1.83,1.06c-.29.17-.5.2-.64.09-.14-.1-.23-.22-.29-.33l-2.82-5.06-2.86,1.65v6.69c0,.21-.06.43-.17.64-.12.22-.25.38-.41.47l-1.75,1.01c-.16.09-.29.09-.41,0s-.17-.23-.17-.45v-18.55c0-.21.06-.43.17-.65.12-.22.25-.37.41-.47l5.56-3.21ZM268.55,285.75l3.12-1.8c.82-.47,1.47-1.04,1.96-1.71.49-.66.73-1.53.73-2.6s-.24-1.65-.73-1.73c-.49-.08-1.14.11-1.96.59l-3.12,1.8v5.46Z"/>
      <path class="cls-8" d="M297.88,279.88c-.24.14-.43.16-.56.07-.13-.1-.22-.18-.28-.24l-6.03-8.47v11.83c0,.21-.06.43-.17.64-.11.22-.25.38-.41.47l-1.74,1.01c-.16.09-.29.09-.41,0-.12-.09-.17-.23-.17-.45v-18.55c0-.21.06-.43.17-.65.12-.22.25-.37.41-.47l1.51-.87c.24-.14.43-.16.56-.06.13.1.22.18.28.24l6.03,8.47v-11.83c0-.21.06-.43.17-.65.12-.22.25-.37.41-.47l1.75-1.01c.16-.09.29-.09.41,0,.12.09.17.24.17.45v18.55c0,.21-.06.43-.17.64-.11.22-.25.37-.41.47l-1.51.87Z"/>
      <path class="cls-8" d="M280.34,288.26c.03-.26.11-.53.24-.82.14-.29.33-.52.59-.66l1.68-.97c.12-.07.22-.07.3,0,.09.06.13.17.13.33,0,.07,0,.13-.02.19l-1.28,5.02c-.05.2-.14.43-.26.69-.12.26-.31.46-.57.61l-.87.5c-.12.07-.22.07-.3,0-.08-.06-.13-.17-.13-.33v-.05l.48-4.51Z"/>
      <path class="cls-8" d="M302.82,264.43c.04-1.1.2-2.19.46-3.3.27-1.1.66-2.15,1.18-3.15.51-1,1.16-1.93,1.94-2.79.78-.86,1.69-1.6,2.76-2.21,1.05-.61,1.96-.93,2.74-.97.77-.05,1.42.14,1.94.55.52.41.91,1,1.19,1.78.27.78.43,1.71.47,2.77.02.36.03.75.03,1.19,0,.44.01.89.01,1.36s0,.93-.01,1.37c0,.45-.02.85-.03,1.22-.04,1.1-.2,2.2-.46,3.3-.27,1.1-.66,2.15-1.18,3.15-.52,1-1.16,1.92-1.95,2.78-.78.85-1.7,1.58-2.75,2.19-1.06.61-1.98.94-2.76.99-.77.04-1.42-.13-1.94-.53-.52-.4-.91-1-1.18-1.79-.26-.79-.42-1.72-.46-2.76-.02-.35-.03-.75-.03-1.19,0-.44-.01-.89-.01-1.36s0-.92.01-1.37c0-.45.02-.85.03-1.23ZM312.57,258.94c-.06-1.34-.39-2.22-1-2.62-.61-.4-1.42-.32-2.42.26-1,.58-1.81,1.42-2.42,2.53-.61,1.11-.94,2.37-1,3.78-.03.74-.04,1.56-.04,2.45s.01,1.69.04,2.4c.06,1.34.39,2.21,1,2.61.61.4,1.42.3,2.42-.28,1.01-.58,1.81-1.42,2.42-2.52.61-1.1.94-2.35,1-3.76.03-.75.04-1.56.04-2.45s-.01-1.69-.04-2.4Z"/>
      <path class="cls-8" d="M328.06,242.36c.16-.09.29-.09.41,0,.12.09.17.24.17.45v2.04c0,.21-.06.43-.17.65-.12.22-.25.37-.41.47l-3.88,2.24v15.74c0,.21-.06.43-.17.64-.11.22-.25.37-.41.47l-1.74,1.01c-.16.09-.3.09-.41,0-.12-.09-.17-.23-.17-.45v-15.74l-3.88,2.24c-.16.09-.29.09-.41,0-.12-.09-.17-.23-.17-.45v-2.04c0-.21.06-.43.17-.65.11-.22.25-.37.41-.47l10.66-6.16Z"/>
      <path class="cls-8" d="M344.95,232.61c.16-.09.29-.09.41,0,.12.09.17.24.17.45v2.04c0,.21-.06.43-.17.65-.12.22-.25.37-.41.47l-6.87,3.97v5.57l6.44-3.72c.16-.09.29-.09.41,0,.12.09.17.24.17.45v2.04c0,.21-.06.43-.17.64-.11.22-.25.37-.41.47l-6.44,3.72v6.58c0,.21-.06.43-.17.64-.12.22-.25.38-.41.47l-1.74,1.01c-.16.09-.29.09-.41,0-.11-.09-.17-.24-.17-.45v-18.55c0-.21.06-.43.17-.65.12-.22.25-.37.41-.47l9.2-5.31Z"/>
      <path class="cls-8" d="M347.33,238.72c.04-1.1.2-2.19.46-3.3.27-1.1.66-2.15,1.17-3.15.52-1,1.16-1.93,1.94-2.79.78-.86,1.69-1.6,2.76-2.21,1.05-.61,1.96-.93,2.74-.97.78-.05,1.42.14,1.94.55.51.41.91,1,1.18,1.78.27.78.43,1.71.47,2.77.01.36.02.75.03,1.19,0,.44.01.89.01,1.36s0,.93-.01,1.37c0,.45-.02.85-.03,1.22-.04,1.1-.2,2.2-.46,3.3-.27,1.1-.66,2.15-1.17,3.15-.52,1-1.17,1.92-1.95,2.78-.79.85-1.7,1.58-2.75,2.19-1.06.61-1.98.94-2.76.99-.78.04-1.42-.13-1.94-.53-.51-.4-.91-1-1.17-1.79s-.42-1.72-.46-2.76c-.01-.35-.03-.75-.03-1.19,0-.44-.01-.89-.01-1.36s0-.92.01-1.37c0-.45.02-.85.03-1.23ZM357.09,233.23c-.06-1.34-.39-2.22-1-2.62-.61-.4-1.42-.32-2.42.26-1.01.58-1.81,1.42-2.42,2.53-.61,1.11-.94,2.37-1,3.78-.03.74-.04,1.56-.04,2.45s.01,1.69.04,2.4c.06,1.34.39,2.21,1,2.61.61.4,1.42.3,2.42-.28,1-.58,1.81-1.42,2.42-2.52.61-1.1.94-2.35,1-3.76.03-.75.04-1.56.04-2.45s-.01-1.69-.04-2.4Z"/>
      <path class="cls-8" d="M374.5,215.55c.16-.09.29-.09.41,0,.12.09.17.24.17.45v11.77c0,1.19-.13,2.33-.39,3.44-.26,1.11-.65,2.15-1.16,3.14-.52.99-1.16,1.89-1.94,2.71-.77.82-1.67,1.53-2.69,2.11-1.04.6-1.94.93-2.71,1-.77.07-1.41-.09-1.93-.48-.52-.39-.9-.99-1.15-1.8-.25-.81-.38-1.81-.38-3v-11.77c0-.21.06-.43.17-.65.12-.22.25-.37.41-.47l1.74-1.01c.16-.09.3-.09.41,0,.11.09.17.24.17.45v11.63c0,.79.08,1.41.24,1.87.16.46.38.79.67.98.29.19.63.25,1.03.18.4-.07.84-.24,1.31-.51.47-.27.91-.61,1.32-1.01.41-.4.76-.86,1.04-1.38.29-.52.51-1.1.68-1.76.16-.65.25-1.37.25-2.15v-11.63c0-.21.06-.42.17-.65.11-.22.25-.38.41-.47l1.72-.99Z"/>
      <path class="cls-8" d="M388.11,227.79c-.24.14-.43.16-.56.07-.13-.1-.22-.18-.28-.24l-6.03-8.47v11.83c0,.21-.06.43-.17.64-.12.22-.25.38-.41.47l-1.75,1.01c-.16.09-.29.09-.41,0-.12-.09-.17-.23-.17-.45v-18.55c0-.21.06-.43.17-.65.12-.22.25-.37.41-.47l1.51-.87c.24-.14.43-.16.56-.06.13.1.22.18.28.24l6.03,8.47v-11.83c0-.21.06-.43.17-.65.11-.22.25-.37.41-.47l1.74-1.01c.16-.09.29-.09.41,0,.12.09.17.24.17.45v18.55c0,.21-.06.43-.17.64-.12.22-.25.37-.41.47l-1.51.87Z"/>
      <path class="cls-8" d="M399.46,201.13c1.06-.61,1.98-.96,2.77-1.04.78-.08,1.44.08,1.96.46.53.39.93.99,1.21,1.8.28.82.45,1.81.5,2.98.06,1.38.06,2.8,0,4.25-.06,1.24-.23,2.43-.5,3.57-.28,1.14-.68,2.2-1.2,3.19-.52.99-1.16,1.89-1.93,2.71-.77.82-1.67,1.52-2.7,2.12l-5.43,3.13c-.16.09-.29.09-.41,0-.12-.09-.17-.24-.17-.45v-18.55c0-.21.06-.43.17-.65.12-.22.25-.37.41-.47l5.32-3.07ZM402.99,207.02c-.03-.59-.12-1.11-.27-1.55-.15-.44-.37-.77-.66-.99-.3-.22-.67-.32-1.11-.28-.44.04-.98.23-1.59.59l-2.89,1.67v12.92l2.99-1.73c.59-.34,1.1-.75,1.53-1.21.43-.47.79-.98,1.08-1.53.29-.55.5-1.13.65-1.76.15-.62.24-1.25.27-1.88.06-1.45.06-2.86,0-4.25Z"/>
    </g>
  </g>
</svg>